<?xml version="1.0" standalone="no"?>
<!DOCTYPE svg PUBLIC "-//W3C//DTD SVG 20010904//EN"
 "http://www.w3.org/TR/2001/REC-SVG-20010904/DTD/svg10.dtd">
<svg version="1.0" xmlns="http://www.w3.org/2000/svg"
 width="960.000000pt" height="960.000000pt" viewBox="0 0 960.000000 960.000000"
 preserveAspectRatio="xMidYMid meet">
<metadata>
Created by potrace 1.14, written by Peter Selinger 2001-2017
</metadata>
<g transform="translate(0.000000,960.000000) scale(0.100000,-0.100000)"
fill="#000000" stroke="none">
<path d="M5165 6395 c-43 -17 -75 -40 -112 -79 -69 -74 -96 -144 -97 -256 -1
-77 2 -91 33 -155 43 -88 130 -175 269 -269 172 -116 216 -173 228 -293 14
-127 -39 -248 -123 -285 -93 -41 -241 -12 -307 60 -15 18 -31 94 -36 175 0 4
-18 7 -40 7 l-41 0 3 -132 3 -133 70 -24 c61 -21 89 -24 220 -25 146 -1 151 0
204 27 112 59 184 166 200 295 26 205 -35 307 -290 483 -143 100 -166 120
-205 179 -27 41 -29 50 -29 144 0 117 16 159 79 210 51 41 139 48 214 16 60
-26 82 -63 82 -138 0 -73 6 -82 51 -82 l39 0 0 119 0 119 -27 11 c-59 23 -201
51 -263 51 -45 0 -83 -8 -125 -25z"/>
<path d="M2590 6361 c0 -26 3 -29 48 -35 95 -12 87 46 87 -626 l0 -592 -23
-18 c-13 -11 -43 -22 -67 -26 -39 -5 -45 -10 -45 -30 l0 -24 185 0 185 0 0 23
c0 20 -8 25 -60 35 -50 11 -63 17 -70 38 -6 15 -10 240 -9 557 l1 532 125
-375 c68 -206 148 -449 178 -540 52 -160 54 -165 81 -165 32 0 7 -64 220 569
91 270 167 492 170 495 3 3 4 -239 2 -536 -3 -616 5 -565 -90 -578 -42 -6 -48
-10 -48 -31 l0 -24 220 0 220 0 0 24 c0 21 -6 25 -51 31 -75 10 -86 26 -94
136 -4 52 -5 312 -3 579 4 563 -1 534 93 545 53 7 55 9 55 36 l0 30 -146 -3
-147 -3 -162 -482 c-185 -549 -174 -517 -180 -511 -5 4 -85 233 -210 598 -29
85 -71 209 -94 275 -22 65 -41 120 -41 122 0 2 -74 3 -165 3 l-165 0 0 -29z"/>
<path d="M3970 6361 c0 -27 3 -29 52 -34 33 -4 60 -14 72 -27 21 -20 21 -29
21 -598 0 -447 -3 -582 -13 -599 -9 -16 -29 -26 -72 -35 -52 -10 -60 -15 -60
-35 l0 -23 420 0 420 0 0 125 0 125 -44 0 -43 0 -7 -70 c-4 -41 -13 -76 -22
-85 -16 -16 -111 -22 -273 -18 -98 3 -127 17 -136 65 -3 18 -5 146 -3 283 l3
250 70 3 c80 4 205 -6 223 -17 7 -4 16 -27 20 -52 6 -38 11 -44 35 -47 l27 -3
0 155 0 156 -30 0 c-27 0 -30 -3 -30 -29 0 -16 -4 -41 -10 -55 l-10 -26 -150
0 -150 0 0 270 0 270 169 0 c93 0 181 -4 194 -9 22 -9 25 -17 32 -84 6 -72 8
-75 34 -79 50 -7 51 -4 51 128 l0 124 -395 0 -395 0 0 -29z"/>
<path d="M5760 6361 c0 -26 3 -29 48 -35 95 -12 87 45 90 -620 l2 -586 -24
-24 c-14 -15 -41 -27 -70 -31 -40 -6 -46 -10 -46 -31 l0 -24 225 0 225 0 0 25
c0 22 -5 25 -51 31 -29 4 -60 15 -70 25 -23 23 -31 132 -27 389 l3 205 275 0
275 0 0 -288 c0 -287 0 -289 -22 -307 -13 -10 -45 -21 -73 -25 -44 -6 -50 -10
-50 -31 l0 -24 231 0 230 0 -3 22 c-2 18 -13 25 -57 35 -93 20 -86 -27 -89
581 -3 555 -1 632 24 656 8 8 36 18 62 22 49 7 62 17 62 47 0 16 -18 17 -230
17 l-230 0 0 -30 c0 -26 4 -30 28 -30 15 0 44 -5 64 -10 53 -15 58 -43 58
-317 l0 -233 -281 0 -281 0 5 248 c2 136 8 257 12 269 8 24 56 43 108 43 23 0
27 4 27 30 l0 30 -225 0 -225 0 0 -29z"/>
<path d="M1240 4715 l0 -25 3545 0 3545 0 0 25 0 25 -3545 0 -3545 0 0 -25z"/>
<path d="M2629 4417 c-90 -47 -138 -169 -126 -322 12 -167 101 -264 240 -265
64 0 157 33 157 56 0 18 0 18 -51 -6 -126 -57 -243 18 -269 172 -33 195 40
368 156 368 51 0 102 -31 110 -67 10 -48 13 -53 29 -53 12 0 15 13 15 59 l0
59 -44 11 c-77 19 -167 14 -217 -12z"/>
<path d="M5298 4418 c-40 -23 -56 -51 -64 -112 -7 -58 27 -121 91 -166 119
-84 151 -139 127 -219 -12 -40 -54 -71 -95 -71 -37 0 -91 41 -97 75 -3 15 -11
30 -17 33 -9 2 -13 -12 -13 -51 0 -53 1 -56 31 -66 47 -16 136 -13 176 6 52
25 85 80 85 146 1 75 -23 110 -122 181 -44 32 -85 67 -90 77 -6 10 -10 41 -10
69 0 63 30 100 82 100 49 0 78 -24 78 -66 0 -27 4 -34 20 -34 17 0 20 7 20 50
0 48 -1 49 -37 59 -60 17 -124 13 -165 -11z"/>
<path d="M7282 4423 c-47 -23 -87 -73 -112 -140 -19 -50 -21 -73 -18 -164 6
-149 47 -226 143 -270 70 -32 203 -20 241 23 25 27 15 29 -46 8 -69 -24 -88
-24 -142 -1 -81 35 -117 98 -125 222 -14 191 54 319 169 319 57 0 96 -31 104
-81 5 -29 11 -39 23 -37 12 2 17 17 19 59 l3 56 -45 12 c-66 16 -175 14 -214
-6z"/>
<path d="M8093 4421 c-42 -27 -62 -58 -69 -112 -9 -63 21 -118 93 -172 123
-92 127 -98 128 -167 0 -58 -2 -64 -34 -92 -29 -26 -39 -29 -73 -25 -47 6 -88
41 -88 74 0 14 -6 23 -15 23 -11 0 -15 -12 -15 -50 l0 -49 42 -12 c117 -31
215 10 242 102 29 95 2 150 -114 233 -44 32 -85 67 -90 77 -6 10 -10 40 -10
67 0 38 5 55 25 76 47 50 135 26 135 -38 0 -38 6 -47 26 -39 19 7 19 87 -1
103 -8 7 -46 15 -83 17 -55 3 -73 1 -99 -16z"/>
<path d="M1257 4424 c-14 -14 -7 -23 21 -26 l27 -3 3 -256 2 -257 -30 -10
c-16 -6 -30 -16 -30 -22 0 -7 56 -10 178 -8 l177 3 0 50 c0 38 -4 50 -16 53
-12 2 -18 -7 -23 -32 l-7 -36 -79 0 c-68 0 -81 3 -90 19 -11 22 -14 228 -2
234 4 3 32 2 64 0 44 -4 57 -9 61 -24 11 -42 27 -17 27 41 0 59 -13 79 -25 40
-5 -17 -15 -20 -71 -20 l-64 0 0 110 0 110 85 0 85 0 0 -35 c0 -29 4 -35 21
-35 18 0 20 5 17 53 l-3 52 -160 3 c-89 2 -164 0 -168 -4z"/>
<path d="M1637 4424 c-10 -11 2 -24 22 -24 13 0 37 -36 85 -129 36 -71 66
-133 66 -139 0 -23 -139 -248 -158 -257 -44 -20 -25 -35 43 -35 51 0 65 3 65
15 0 9 -9 15 -23 15 -47 0 -45 5 45 158 l51 86 54 -108 c29 -60 53 -115 53
-122 0 -8 -10 -14 -25 -14 -16 0 -25 -6 -25 -15 0 -12 17 -15 90 -15 66 0 90
3 90 13 0 7 -10 17 -22 22 -21 9 -78 112 -142 252 l-19 42 49 83 c61 105 93
148 110 148 8 0 14 6 14 14 0 10 -16 14 -60 15 -45 0 -60 -3 -60 -14 0 -7 11
-15 25 -17 25 -3 25 -3 -32 -105 -32 -57 -61 -103 -64 -103 -8 0 -99 186 -99
201 0 5 12 9 26 9 16 0 24 5 22 13 -5 13 -168 23 -181 11z"/>
<path d="M2090 4415 c0 -7 12 -15 28 -17 l27 -3 0 -260 0 -260 -27 -3 c-16 -2
-28 -9 -28 -18 0 -12 30 -14 175 -14 109 0 175 4 176 10 6 49 -1 100 -15 100
-8 0 -17 -15 -20 -35 l-7 -35 -77 0 c-47 0 -83 5 -90 12 -11 11 -18 228 -8
239 2 2 32 2 66 1 51 -3 63 -7 67 -23 11 -39 23 -17 23 41 0 58 -12 80 -23 40
-4 -17 -14 -20 -71 -20 l-66 0 0 110 0 111 83 -3 82 -3 3 -32 c3 -25 8 -33 23
-33 18 0 20 6 17 53 l-3 52 -167 2 c-137 2 -168 -1 -168 -12z"/>
<path d="M2950 4415 c0 -9 9 -15 24 -15 13 0 27 -7 30 -16 3 -9 6 -100 6 -203
0 -214 9 -257 66 -312 34 -33 38 -34 116 -34 l80 0 38 42 c21 24 40 57 44 74
3 17 6 105 6 194 0 89 3 183 6 208 6 40 10 46 33 49 56 6 22 23 -51 26 -64 2
-78 0 -78 -13 0 -9 9 -15 24 -15 13 0 27 -7 30 -16 3 -9 6 -109 6 -222 0 -182
-2 -212 -18 -242 -49 -93 -181 -88 -221 9 -8 17 -10 103 -9 246 l3 220 28 3
c16 2 27 8 24 15 -2 8 -36 13 -95 15 -77 2 -92 0 -92 -13z"/>
<path d="M3450 4374 c0 -40 4 -54 14 -54 9 0 16 12 18 33 l3 32 73 3 72 3 0
-233 c0 -128 -3 -243 -6 -256 -4 -15 -17 -25 -35 -29 -16 -3 -29 -12 -29 -20
0 -11 20 -13 103 -11 99 3 136 17 72 28 -20 4 -31 12 -36 30 -4 14 -7 130 -8
258 l-1 232 69 0 c72 0 81 -6 81 -51 0 -10 7 -19 15 -19 12 0 15 13 15 55 l0
56 -210 -1 -210 -1 0 -55z"/>
<path d="M3907 4423 c-14 -13 -6 -22 21 -25 l27 -3 3 -249 c2 -258 0 -276 -39
-276 -11 0 -19 -7 -19 -15 0 -12 17 -15 95 -15 78 0 95 3 95 15 0 8 -8 15 -19
15 -39 0 -41 18 -39 276 l3 249 28 3 c15 2 27 9 27 18 0 11 -18 14 -88 14 -49
0 -92 -3 -95 -7z"/>
<path d="M4110 4415 c0 -8 7 -15 15 -15 20 0 34 -34 135 -328 45 -133 87 -241
93 -239 13 4 28 46 119 331 62 195 76 230 96 237 38 15 14 29 -49 29 -46 0
-59 -3 -59 -15 0 -9 9 -15 24 -15 34 0 39 -12 22 -57 -8 -21 -38 -112 -67
-203 -29 -91 -56 -169 -59 -173 -7 -8 -151 395 -150 420 0 6 11 13 25 15 14 2
26 8 25 13 0 6 -37 11 -85 13 -71 2 -85 0 -85 -13z"/>
<path d="M4610 4415 c0 -8 8 -15 18 -15 40 0 42 -15 42 -261 0 -203 -2 -240
-16 -253 -8 -9 -22 -16 -30 -16 -8 0 -14 -7 -14 -15 0 -13 26 -15 175 -15
l175 0 0 56 c0 46 -3 55 -17 52 -9 -2 -17 -11 -19 -21 -7 -46 -10 -48 -96 -45
l-83 3 -3 129 -3 128 23 -6 c13 -3 42 -6 66 -6 35 0 42 -3 42 -20 0 -11 7 -20
15 -20 12 0 15 13 15 60 0 47 -3 60 -15 60 -8 0 -15 -9 -15 -20 0 -18 -7 -20
-65 -20 l-65 0 0 110 0 110 79 0 79 0 6 -35 c4 -21 13 -35 21 -35 11 0 15 13
15 54 l0 54 -165 1 c-142 1 -165 -1 -165 -14z"/>
<path d="M5577 4424 c-13 -14 -7 -22 23 -27 l30 -6 0 -255 0 -254 -30 -11
c-16 -5 -30 -15 -30 -21 0 -7 56 -10 178 -8 l177 3 0 50 c0 38 -4 50 -16 53
-12 2 -18 -7 -23 -32 l-7 -36 -84 0 c-101 0 -97 -6 -93 150 3 93 5 105 21 104
9 -1 37 -2 61 -3 35 -1 46 -5 51 -21 12 -39 25 -19 25 40 0 59 -13 79 -25 40
-5 -17 -15 -20 -71 -20 l-64 0 0 110 0 110 85 0 85 0 0 -35 c0 -29 4 -35 21
-35 18 0 20 5 17 53 l-3 52 -160 3 c-89 2 -164 0 -168 -4z"/>
<path d="M5960 4416 c0 -7 14 -16 30 -19 l30 -6 0 -249 c0 -257 -2 -272 -42
-272 -10 0 -18 -7 -18 -15 0 -12 17 -15 90 -15 70 0 90 3 90 14 0 8 -11 17
-25 20 -25 6 -25 7 -25 121 0 108 1 115 20 115 31 0 50 -26 115 -153 l60 -117
63 0 c48 0 62 3 62 15 0 9 -9 15 -23 15 -13 0 -31 8 -39 18 -19 22 -128 217
-128 229 0 4 13 15 29 25 62 35 87 138 52 211 -31 64 -68 77 -221 77 -95 0
-120 -3 -120 -14z m255 -40 c47 -47 42 -167 -9 -215 -24 -23 -81 -41 -103 -34
-10 4 -13 40 -13 139 l0 134 50 0 c40 0 56 -5 75 -24z"/>
<path d="M6410 4415 c0 -8 8 -15 19 -15 19 0 36 -44 167 -427 27 -79 54 -143
59 -143 6 0 27 51 47 113 21 61 62 190 93 285 48 147 59 172 77 172 11 0 18 5
16 13 -3 8 -25 12 -63 12 -38 0 -60 -4 -62 -12 -3 -8 5 -13 21 -13 13 0 27 -4
31 -9 3 -5 -8 -51 -25 -103 -16 -51 -47 -146 -67 -210 -21 -65 -40 -118 -43
-118 -6 0 -150 413 -150 430 0 5 14 10 31 10 20 0 29 4 27 13 -3 8 -33 13 -91
15 -73 2 -87 0 -87 -13z"/>
<path d="M6905 4420 c-3 -6 1 -12 9 -15 9 -3 23 -7 31 -10 8 -2 15 -15 15 -27
1 -67 1 -446 1 -465 -1 -14 -11 -24 -32 -32 -52 -18 -22 -31 72 -31 72 0 89 3
89 15 0 8 -9 15 -20 15 -34 0 -40 40 -40 265 0 225 6 265 40 265 11 0 20 7 20
15 0 12 -17 15 -89 15 -50 0 -93 -5 -96 -10z"/>
<path d="M7607 4424 c-14 -14 -7 -23 20 -26 19 -2 29 -10 33 -26 3 -13 4 -128
2 -257 l-3 -233 -29 -11 c-68 -23 -30 -31 150 -31 l180 0 0 55 c0 48 -3 55
-19 55 -15 0 -21 -8 -23 -32 l-3 -33 -80 -3 c-103 -4 -105 -1 -105 140 l0 108
55 0 c30 0 58 1 63 1 4 1 11 -8 17 -20 18 -39 32 -23 34 39 1 46 -2 60 -13 60
-7 0 -16 -9 -19 -20 -4 -17 -14 -20 -71 -20 l-66 0 0 110 0 110 85 0 85 0 0
-35 c0 -29 4 -35 21 -35 18 0 20 5 17 53 l-3 52 -161 3 c-88 1 -163 -1 -167
-4z"/>
<path d="M1250 3705 l0 -25 3545 0 3545 0 0 25 0 25 -3545 0 -3545 0 0 -25z"/>
<path d="M3800 3597 c-14 -7 -31 -26 -39 -42 -22 -46 -62 -268 -51 -279 11
-11 61 21 68 45 3 9 -2 8 -17 -5 -11 -11 -24 -16 -28 -12 -4 3 6 66 23 139
l29 132 30 0 c19 1 30 6 30 15 0 19 -16 22 -45 7z"/>
<path d="M4123 3600 c-37 -15 -52 -52 -79 -190 -23 -119 -25 -154 -9 -138 3 3
19 69 34 146 16 77 32 145 36 152 4 6 19 10 33 8 18 -2 27 2 27 11 0 18 -14
22 -42 11z"/>
<path d="M5153 3595 c-35 -24 -44 -49 -72 -192 -19 -93 -23 -133 -15 -133 6 0
17 29 24 65 7 36 16 68 21 70 4 3 6 12 3 20 -7 18 15 126 29 143 6 7 22 12 36
10 18 -2 26 2 26 12 0 21 -26 23 -52 5z"/>
<path d="M5625 3601 c-33 -14 -57 -48 -70 -98 -10 -41 -17 -49 -41 -54 l-29
-7 29 -1 c24 -1 27 -4 22 -23 -4 -13 -15 -65 -26 -117 -11 -52 -25 -100 -31
-108 -6 -7 -27 -13 -45 -13 -24 0 -34 -5 -34 -15 0 -26 53 -18 82 13 26 27 45
83 68 200 12 60 14 62 44 63 29 1 30 1 6 8 -33 9 -36 30 -11 86 16 37 25 46
43 45 45 -4 52 -1 38 15 -14 17 -17 17 -45 6z"/>
<path d="M5948 3593 c-31 -19 -39 -38 -63 -141 -22 -97 -30 -182 -18 -182 15
0 63 40 63 51 0 6 -7 3 -16 -5 -18 -18 -34 -21 -34 -6 0 17 40 202 52 238 9
30 14 33 39 30 26 -4 46 12 32 26 -10 10 -26 6 -55 -11z"/>
<path d="M3265 3540 c-42 -16 -69 -58 -69 -107 -1 -25 4 -48 10 -50 8 -2 10
12 7 44 -4 41 -1 52 21 76 32 34 71 38 62 5 -4 -13 -15 -62 -25 -110 -21 -97
-26 -108 -47 -108 -8 0 -14 -4 -14 -10 0 -5 23 -10 50 -10 28 0 50 5 50 10 0
6 -9 10 -19 10 -17 0 -18 4 -11 33 4 17 11 44 14 60 5 22 12 27 36 27 17 0 30
-5 31 -12 1 -17 17 22 18 42 1 12 -1 12 -8 2 -5 -8 -21 -12 -38 -10 l-30 3 11
45 c11 44 12 45 53 48 33 2 42 -1 46 -15 3 -12 5 -9 6 8 1 27 0 27 -66 27 -38
0 -77 -4 -88 -8z"/>
<path d="M3939 3490 c-6 -16 -17 -30 -25 -30 -17 0 -19 -17 -3 -22 8 -3 7 -25
-2 -81 -14 -81 -11 -92 18 -83 26 9 67 45 59 53 -3 3 -14 -1 -24 -10 -35 -32
-40 -15 -21 73 8 39 15 50 30 50 10 0 19 5 19 10 0 6 -9 10 -19 10 -17 0 -18
4 -11 30 5 19 5 30 -1 30 -6 0 -15 -13 -20 -30z"/>
<path d="M4487 3513 c-4 -3 -7 -17 -7 -30 0 -16 -6 -23 -20 -23 -11 0 -20 -4
-20 -10 0 -5 7 -10 15 -10 18 0 18 0 0 -75 -8 -33 -15 -66 -15 -73 0 -23 28
-24 59 -1 37 27 42 46 6 23 -14 -9 -28 -14 -31 -12 -3 3 1 35 7 72 10 53 16
66 31 66 10 0 18 5 18 10 0 6 -7 10 -15 10 -11 0 -13 8 -8 30 5 28 -5 39 -20
23z"/>
<path d="M3617 3460 c-52 -41 -77 -180 -35 -188 20 -4 78 33 78 49 0 6 -10 3
-22 -5 -37 -26 -48 -20 -47 27 1 55 21 111 42 115 27 5 21 -38 -10 -72 l-28
-30 30 18 c56 34 72 76 36 95 -14 8 -25 6 -44 -9z"/>
<path d="M4617 3460 c-66 -52 -78 -190 -16 -190 33 0 58 18 79 60 45 89 1 180
-63 130z m47 -16 c19 -49 -11 -164 -44 -164 -19 0 -32 44 -28 92 7 67 55 116
72 72z"/>
<path d="M4965 3447 c-86 -86 -55 -232 31 -151 l29 26 -27 -16 c-54 -32 -73 8
-46 96 13 45 27 54 57 39 24 -14 39 3 21 24 -18 22 -28 19 -65 -18z"/>
<path d="M6190 3472 c-20 -6 -40 -32 -40 -53 0 -9 11 -33 25 -54 27 -39 26
-69 -2 -79 -16 -7 -37 6 -39 24 -1 6 -2 12 -3 15 0 3 -15 -2 -32 -10 -17 -9
-33 -14 -36 -11 -3 3 2 39 12 81 9 42 14 79 12 82 -3 3 -21 0 -40 -6 -60 -20
-97 -76 -97 -147 0 -44 23 -54 54 -25 28 26 39 27 31 1 -8 -26 9 -26 44 -1 27
19 27 19 39 0 19 -30 72 -22 92 14 14 26 13 31 -12 77 -28 49 -28 80 -2 80 8
0 17 -7 20 -15 6 -15 24 -11 24 5 0 14 -33 28 -50 22z m-136 -69 c-9 -53 -36
-97 -62 -101 -18 -3 -22 2 -22 23 0 31 26 96 43 107 7 4 20 8 30 8 15 0 17 -6
11 -37z"/>
<path d="M3468 3453 c-33 -37 -49 -84 -46 -131 2 -35 7 -48 20 -50 20 -4 78
34 78 50 0 6 -8 4 -18 -5 -29 -26 -52 -22 -52 11 0 19 8 32 29 44 36 20 65 63
57 83 -7 20 -49 19 -68 -2z m40 -19 c3 -20 -43 -73 -53 -62 -3 3 2 24 11 47
17 43 37 50 42 15z"/>
<path d="M4105 3444 c-24 -20 -25 -23 -7 -14 13 7 26 9 30 6 3 -4 1 -33 -6
-64 -14 -67 -15 -102 -4 -102 13 0 52 31 52 41 0 6 -8 3 -17 -7 -24 -24 -27
-6 -9 64 28 106 18 125 -39 76z"/>
<path d="M4233 3434 c-24 -32 -28 -47 -28 -98 0 -71 15 -81 65 -46 39 28 39
44 0 22 -27 -15 -32 -15 -40 -2 -19 30 17 150 44 150 25 0 19 -41 -11 -73 -21
-22 -23 -27 -8 -19 31 16 54 45 57 73 2 19 -2 25 -24 27 -20 2 -32 -5 -55 -34z"/>
<path d="M4744 3448 c-16 -19 -16 -20 -1 -9 9 8 20 12 23 9 2 -3 -3 -38 -11
-77 -22 -95 -16 -110 31 -82 43 26 44 26 44 1 0 -11 3 -20 8 -20 14 0 52 31
52 42 0 6 -9 3 -20 -7 -19 -17 -20 -17 -20 0 0 9 7 48 17 86 9 38 13 72 9 76
-11 11 -23 -15 -31 -63 -7 -46 -38 -94 -61 -94 -16 0 -18 20 -5 70 22 87 22
90 3 90 -11 0 -27 -10 -38 -22z"/>
<path d="M5149 3451 l-24 -20 23 6 c27 7 28 -3 6 -87 -19 -73 -10 -93 30 -66
15 9 26 22 26 28 0 6 -9 3 -20 -7 -19 -18 -20 -17 -20 7 0 14 7 47 15 74 26
85 14 106 -36 65z"/>
<path d="M5366 3451 c-22 -24 -45 -87 -46 -122 0 -14 9 -34 20 -44 61 -55 153
84 110 166 -14 25 -61 25 -84 0z m60 -17 c11 -43 -2 -115 -25 -137 -29 -30
-46 -10 -46 56 0 83 55 146 71 81z"/>
<path d="M5758 3445 c-28 -32 -46 -79 -47 -120 -2 -58 40 -72 86 -29 l28 26
-28 -17 c-40 -24 -57 -14 -57 35 0 57 25 114 47 107 43 -12 48 -11 48 3 0 27
-52 24 -77 -5z"/>
<path d="M6302 3458 c-18 -18 -14 -56 10 -100 17 -30 20 -43 12 -56 -16 -25
-48 -22 -52 6 -4 30 -22 28 -22 -2 0 -13 7 -27 16 -30 69 -27 109 41 64 109
-33 50 -19 95 19 61 19 -18 33 -12 24 10 -6 17 -55 18 -71 2z"/>
</g>
</svg>
